# xmcd
#
# Track frame offsets:
#   150
#   14157
#   31136
#   43368
#   56205
#   68757
#   87707
#   93621
#   109093
#   123520
#   130420
#   146124
#   159596
#   173558
#   187335
#   199590
#   208347
#
# Disc length: 2976 seconds
#
# Revision: 0
# Processed by: cddbd v1.5.1PL2 Copyright (c) Steve Scherf et al.
# Submitted via: GXTranscoder 2.0.1939
#
DISCID=100b9e11
DTITLE=Wise Guys - Alles im grünen Bereich
DYEAR=1900
DGENRE=Pop
TTITLE0=01 Opener
TTITLE1=02 Ruf doch mal an
TTITLE2=03 Alles im grünen Bereich
TTITLE3=04 Ich schmeiß mein Auto auf den Müll
TTITLE4=05 Wie kann es sein
TTITLE5=06 Schwachkopf
TTITLE6=07 Julia
TTITLE7=08 Ich bin raus
TTITLE8=09 Dumm gelaufen
TTITLE9=10 Tekkno
TTITLE10=11 Köln ist einfach korrekt
TTITLE11=12 Alles Banane
TTITLE12=13 Haarige Zeiten
TTITLE13=14 Wie die Zeit vergeht
TTITLE14=15 Die Frau hat Rhythmus
TTITLE15=16 Ich will keine a-capella
TTITLE16=17 Lullaby
EXTD=
EXTT0=
EXTT1=
EXTT2=
EXTT3=
EXTT4=
EXTT5=
EXTT6=
EXTT7=
EXTT8=
EXTT9=
EXTT10=
EXTT11=
EXTT12=
EXTT13=
EXTT14=
EXTT15=
EXTT16=
PLAYORDER=
